<svg xmlns="http://www.w3.org/2000/svg" xmlns:xlink="http://www.w3.org/1999/xlink" viewBox="0 0 15.3598 15.3598"><defs><clipPath id="clip-path"><rect width="15.3598" height="15.3601" style="fill:none"/></clipPath></defs><title>chazzromeo-03</title><g id="Page_3" data-name="Page 3"><g id="Page_3-2" data-name="Page 3"><g style="clip-path:url(#clip-path)"><polygon points="3.374 14.64 7.68 14.634 11.985 14.64 12 5.754 13.903 6.48 15.12 3.472 11.759 1.194 9.6 0.714 7.68 0.714 5.76 0.714 3.601 1.194 0.24 3.472 1.457 6.48 3.36 5.754 3.374 14.64" style="fill:#ecf0f1;fill-rule:evenodd"/><polygon points="3.374 14.64 7.68 14.634 11.985 14.64 12 5.754 13.903 6.48 15.12 3.472 11.759 1.194 9.6 0.714 7.68 0.714 5.76 0.714 3.601 1.194 0.24 3.472 1.457 6.48 3.36 5.754 3.374 14.64" style="fill:none;stroke:#000;stroke-linecap:round;stroke-linejoin:round;stroke-width:0.4799000024795532px"/><rect x="8.64" y="2.1538" width="1.44" height="12.4809" style="fill:#e74c3c"/><rect x="8.64" y="2.1538" width="1.44" height="12.4809" style="fill:none;stroke:#000;stroke-linecap:round;stroke-linejoin:round;stroke-width:0.4799000024795532px"/><polygon points="3.601 1.194 0.24 3.472 1.457 6.48 3.36 5.754 3.601 1.194" style="fill:#e74c3c;fill-rule:evenodd"/><polygon points="3.601 1.194 0.24 3.472 1.457 6.48 3.36 5.754 3.601 1.194" style="fill:none;stroke:#000;stroke-linecap:round;stroke-linejoin:round;stroke-width:0.4799000024795532px"/><polygon points="11.759 1.194 15.12 3.472 13.903 6.48 12 5.754 11.759 1.194" style="fill:#e74c3c;fill-rule:evenodd"/><polygon points="11.759 1.194 15.12 3.472 13.903 6.48 12 5.754 11.759 1.194" style="fill:none;stroke:#000;stroke-linecap:round;stroke-linejoin:round;stroke-width:0.4799000024795532px"/><rect x="5.2798" y="2.1538" width="1.44" height="12.4809" style="fill:#e74c3c"/><rect x="5.2798" y="2.1538" width="1.44" height="12.4809" style="fill:none;stroke:#000;stroke-linecap:round;stroke-linejoin:round;stroke-width:0.4799000024795532px"/><circle cx="9.5998" cy="5.7535" r="0.9601" style="fill:#3498db"/><circle cx="9.5998" cy="5.7535" r="0.9601" style="fill:none;stroke:#000;stroke-linecap:round;stroke-linejoin:round;stroke-width:0.4799000024795532px"/><path d="M10.5137.9167,9.5998.7138H5.76L4.8461.9167a2.86722,2.86722,0,0,0,5.6676,0Z" style="fill:#ecf0f1;fill-rule:evenodd"/><path d="M10.5137.9167,9.5998.7138H5.76L4.8461.9167a2.86722,2.86722,0,0,0,5.6676,0Z" style="fill:none;stroke:#000;stroke-linecap:round;stroke-linejoin:round;stroke-width:0.4799000024795532px"/><path d="M6.2546.7835,6.5387.7203H8.8211l.2841.0632a1.42671,1.42671,0,0,1-2.8506,0Z" style="fill:#34495e;fill-rule:evenodd"/><path d="M6.2546.7835,6.5387.7203H8.8211l.2841.0632a1.42671,1.42671,0,0,1-2.8506,0Z" style="fill:none;stroke:#000;stroke-linecap:round;stroke-linejoin:round;stroke-width:0.4799000024795532px"/></g></g></g></svg>