<svg xmlns="http://www.w3.org/2000/svg" xmlns:xlink="http://www.w3.org/1999/xlink" viewBox="0 0 15.3598 15.3598"><defs><clipPath id="clip-path"><rect width="15.3598" height="15.3601" style="fill:none"/></clipPath></defs><title>chazzromeo-13</title><g id="Page_13" data-name="Page 13"><g id="Page_13-2" data-name="Page 13"><g style="clip-path:url(#clip-path)"><path d="M7.5586,9.9822a.83842.83842,0,1,1,.9649-1.3714l2.6402,1.8638a.83617.83617,0,0,1,.3515.6003l.356,2.615a.83773.83773,0,1,1-1.6605.2234l-.3101-2.2779Z" style="fill:#3498db"/><path d="M7.5586,9.9822a.83842.83842,0,1,1,.9649-1.3714l2.6402,1.8638a.83617.83617,0,0,1,.3515.6003l.356,2.615a.83773.83773,0,1,1-1.6605.2234l-.3101-2.2779Z" style="fill:none;stroke:#000;stroke-miterlimit:2.613126039505005;stroke-width:0.4799000024795532px"/><path d="M7.789,4.4535a.71863.71863,0,1,1,.2699,1.4117l-2.776.534L4.2423,8.4807a.71688.71688,0,0,1-1.2824-.6412L4.138,5.4833a.71734.71734,0,0,1,.5281-.4289Z" style="fill:#3498db"/><path d="M7.789,4.4535a.71863.71863,0,1,1,.2699,1.4117l-2.776.534L4.2423,8.4807a.71688.71688,0,0,1-1.2824-.6412L4.138,5.4833a.71734.71734,0,0,1,.5281-.4289Z" style="fill:none;stroke:#000;stroke-miterlimit:2.613126039505005;stroke-width:0.4799000024795532px"/><path d="M8.3585,4.244h.0003a25.24689,25.24689,0,0,1,2.2618,1.8834l1.3515-1.3539a.718.718,0,1,1,1.0182,1.0126L11.2085,7.571a.71876.71876,0,0,1-.9607.0803L9.1032,6.7751,8.5564,9.2996a1.327,1.327,0,0,1-1.3091,1.0072L6.95,11.9925a.83719.83719,0,0,1-.5069.6611L3.721,13.9541a.83667.83667,0,0,1-.7217-1.5097L5.351,11.3207a42.4227,42.4227,0,0,1,1.33-6.12A1.35846,1.35846,0,0,1,8.3585,4.244Z" style="fill:#3498db;fill-rule:evenodd"/><path d="M8.3585,4.244h.0003a25.24689,25.24689,0,0,1,2.2618,1.8834l1.3515-1.3539a.718.718,0,1,1,1.0182,1.0126L11.2085,7.571a.71876.71876,0,0,1-.9607.0803L9.1032,6.7751,8.5564,9.2996a1.327,1.327,0,0,1-1.3091,1.0072L6.95,11.9925a.83719.83719,0,0,1-.5069.6611L3.721,13.9541a.83667.83667,0,0,1-.7217-1.5097L5.351,11.3207a42.4227,42.4227,0,0,1,1.33-6.12A1.35846,1.35846,0,0,1,8.3585,4.244Z" style="fill:none;stroke:#000;stroke-linecap:round;stroke-linejoin:round;stroke-width:0.4799000024795532px"/><path d="M9.6012.4802A1.68,1.68,0,1,1,7.9211,2.16,1.68009,1.68009,0,0,1,9.6012.4802Z" style="fill:#3498db;fill-rule:evenodd"/><path d="M9.6012.4802A1.68,1.68,0,1,1,7.9211,2.16,1.68009,1.68009,0,0,1,9.6012.4802Z" style="fill:none;stroke:#000;stroke-linecap:round;stroke-linejoin:round;stroke-width:0.4799000024795532px"/></g></g></g></svg>