<svg xmlns="http://www.w3.org/2000/svg" xmlns:xlink="http://www.w3.org/1999/xlink" viewBox="0 0 15.3598 15.3598"><defs><clipPath id="clip-path"><rect width="15.3598" height="15.3601" style="fill:none"/></clipPath></defs><title>chazzromeo-14</title><g id="Page_14" data-name="Page 14"><g id="Page_14-2" data-name="Page 14"><g style="clip-path:url(#clip-path)"><path d="M3.8404.2404c-1.6798,0-2.6399,1.4397-2.6399,3.8398S2.6402,7.2006,3.1204,8.8807s.9604,3.6,2.6402,3.6,1.9199-1.9202,1.1999-3.1201-.4799-3.6-.4799-4.8002S6.4806.2401,3.8404.2404Z" style="fill:#2ecc71;fill-rule:evenodd"/><path d="M3.8404.2404c-1.6798,0-2.6399,1.4397-2.6399,3.8398S2.6402,7.2006,3.1204,8.8807s.9604,3.6,2.6402,3.6,1.9199-1.9202,1.1999-3.1201-.4799-3.6-.4799-4.8002S6.4806.2401,3.8404.2404Z" style="fill:none;stroke:#000;stroke-linecap:round;stroke-linejoin:round;stroke-width:0.4799000024795532px"/><path d="M11.5206,2.88c1.6798,0,2.6399,1.4397,2.6399,3.8398s-1.4397,3.1204-1.9199,4.8005-.9604,3.6-2.6402,3.6-1.9199-1.9202-1.1999-3.1201.4799-3.6.4799-4.8002S8.8804,2.8797,11.5206,2.88Z" style="fill:#2ecc71;fill-rule:evenodd"/><path d="M11.5206,2.88c1.6798,0,2.6399,1.4397,2.6399,3.8398s-1.4397,3.1204-1.9199,4.8005-.9604,3.6-2.6402,3.6-1.9199-1.9202-1.1999-3.1201.4799-3.6.4799-4.8002S8.8804,2.8797,11.5206,2.88Z" style="fill:none;stroke:#000;stroke-linecap:round;stroke-linejoin:round;stroke-width:0.4799000024795532px"/></g></g></g></svg>