<svg xmlns="http://www.w3.org/2000/svg" xmlns:xlink="http://www.w3.org/1999/xlink" viewBox="0 0 15.3598 15.3598"><defs><clipPath id="clip-path"><rect width="15.3598" height="15.3601" style="fill:none"/></clipPath></defs><title>chazzromeo-08</title><g id="Page_8" data-name="Page 8"><g id="Page_8-2" data-name="Page 8"><g style="clip-path:url(#clip-path)"><path d="M1.1993,13.9204a.4802.4802,0,0,1,0-.9604c3.3633,0,6.1867-.0145,8.1017-1.0729,1.8635-1.0299,2.9376-3.1261,2.9376-7.329V3.0793l-.8603.8603a.47984.47984,0,0,1-.6786-.6786L12.369,1.5916a.4787.4787,0,0,1,.3498-.1513.4865.4865,0,0,1,.1139.0136l.0389.0113a.47959.47959,0,0,1,.1868.1157L14.7385,3.261a.47988.47988,0,0,1-.6787.6786l-.8608-.8609V4.5581c0,4.6185-1.2561,6.9642-3.4365,8.1692C7.6329,13.9045,4.6959,13.9204,1.1993,13.9204Z" style="fill:#e74c3c"/><path d="M1.1993,13.9204a.4802.4802,0,0,1,0-.9604c3.3633,0,6.1867-.0145,8.1017-1.0729,1.8635-1.0299,2.9376-3.1261,2.9376-7.329V3.0793l-.8603.8603a.47984.47984,0,0,1-.6786-.6786L12.369,1.5916a.4787.4787,0,0,1,.3498-.1513.4865.4865,0,0,1,.1139.0136l.0389.0113a.47959.47959,0,0,1,.1868.1157L14.7385,3.261a.47988.47988,0,0,1-.6787.6786l-.8608-.8609V4.5581c0,4.6185-1.2561,6.9642-3.4365,8.1692C7.6329,13.9045,4.6959,13.9204,1.1993,13.9204Z" style="fill:none;stroke:#000;stroke-linecap:round;stroke-linejoin:round;stroke-width:0.4799000024795532px"/></g></g></g></svg>