<svg xmlns="http://www.w3.org/2000/svg" xmlns:xlink="http://www.w3.org/1999/xlink" viewBox="0 0 15.3598 15.3598"><defs><clipPath id="clip-path"><rect width="15.3598" height="15.3601" style="fill:none"/></clipPath></defs><title>chazzromeo-04</title><g id="Page_4" data-name="Page 4"><g id="Page_4-2" data-name="Page 4"><g style="clip-path:url(#clip-path)"><circle cx="7.6799" cy="1.9202" r="1.6801" style="fill:#ecf0f1"/><circle cx="7.6799" cy="1.9202" r="1.6801" style="fill:none;stroke:#000;stroke-linecap:round;stroke-linejoin:round;stroke-width:0.4799000024795532px"/><path d="M9.6922,9.6046H9.5998v4.5559a.96345.96345,0,0,1-.9598.9598H8.6397a.96235.96235,0,0,1-.9598-.9598.96235.96235,0,0,1-.9598.9598H6.7198a.96235.96235,0,0,1-.9598-.9598V9.6046H5.6676a.96.96,0,0,1-.955-.8645L4.3191,5.0403a1.40112,1.40112,0,0,1,1.44-1.44H9.6007a1.40767,1.40767,0,0,1,1.44,1.44l-.3935,3.6998A.96178.96178,0,0,1,9.6922,9.6046Z" style="fill:#ecf0f1;fill-rule:evenodd"/><path d="M9.6922,9.6046H9.5998v4.5559a.96345.96345,0,0,1-.9598.9598H8.6397a.96235.96235,0,0,1-.9598-.9598.96235.96235,0,0,1-.9598.9598H6.7198a.96235.96235,0,0,1-.9598-.9598V9.6046H5.6676a.96.96,0,0,1-.955-.8645L4.3191,5.0403a1.40112,1.40112,0,0,1,1.44-1.44H9.6007a1.40767,1.40767,0,0,1,1.44,1.44l-.3935,3.6998A.96178.96178,0,0,1,9.6922,9.6046Z" style="fill:none;stroke:#000;stroke-linecap:round;stroke-linejoin:round;stroke-width:0.4799000024795532px"/><line x1="7.6796" y1="14.161" x2="7.6796" y2="10.08" style="fill:none;stroke:#000;stroke-linecap:round;stroke-linejoin:round;stroke-width:0.4799000024795532px"/><line x1="9.5995" y1="9.6046" x2="9.5995" y2="6.7204" style="fill:none;stroke:#000;stroke-linecap:round;stroke-linejoin:round;stroke-width:0.4799000024795532px"/><line x1="5.7603" y1="9.6046" x2="5.7603" y2="6.7204" style="fill:none;stroke:#000;stroke-linecap:round;stroke-linejoin:round;stroke-width:0.4799000024795532px"/></g></g></g></svg>