<svg xmlns="http://www.w3.org/2000/svg" xmlns:xlink="http://www.w3.org/1999/xlink" viewBox="0 0 15.3598 15.3598"><defs><clipPath id="clip-path"><rect width="15.3598" height="15.3601" style="fill:none"/></clipPath></defs><title>chazzromeo-10</title><g id="Page_10" data-name="Page 10"><g id="Page_10-2" data-name="Page 10"><g style="clip-path:url(#clip-path)"><rect x="1.44" y="0.2395" width="12.4798" height="14.8808" style="fill:#2ecc71"/><rect x="1.44" y="0.2395" width="12.4798" height="14.8808" style="fill:none;stroke:#ecf0f1;stroke-linecap:round;stroke-linejoin:round;stroke-width:0.4799000024795532px"/><circle cx="7.6799" cy="7.6799" r="1.9196" style="fill:#2ecc71"/><circle cx="7.6799" cy="7.6799" r="1.9196" style="fill:none;stroke:#ecf0f1;stroke-linecap:round;stroke-linejoin:round;stroke-width:0.4799000024795532px"/><path d="M9.1196,3.1204a1.4397,1.4397,0,0,1-2.8794,0Z" style="fill:#2ecc71;fill-rule:evenodd"/><path d="M9.1196,3.1204a1.4397,1.4397,0,0,1-2.8794,0Z" style="fill:none;stroke:#ecf0f1;stroke-linecap:round;stroke-linejoin:round;stroke-width:0.4799000024795532px"/><rect x="4.5601" y="0.2395" width="6.2396" height="2.8809" style="fill:#2ecc71"/><rect x="4.5601" y="0.2395" width="6.2396" height="2.8809" style="fill:none;stroke:#ecf0f1;stroke-linecap:round;stroke-linejoin:round;stroke-width:0.4799000024795532px"/><rect x="6.2399" y="0.2395" width="2.88" height="1.4406" style="fill:#2ecc71"/><rect x="6.2399" y="0.2395" width="2.88" height="1.4406" style="fill:none;stroke:#ecf0f1;stroke-linecap:round;stroke-linejoin:round;stroke-width:0.4799000024795532px"/><path d="M9.1196,12.2394a1.4397,1.4397,0,0,0-2.8794,0Z" style="fill:#2ecc71;fill-rule:evenodd"/><path d="M9.1196,12.2394a1.4397,1.4397,0,0,0-2.8794,0Z" style="fill:none;stroke:#ecf0f1;stroke-linecap:round;stroke-linejoin:round;stroke-width:0.4799000024795532px"/><rect x="4.5601" y="12.2394" width="6.2396" height="2.8809" style="fill:#2ecc71"/><rect x="4.5601" y="12.2394" width="6.2396" height="2.8809" style="fill:none;stroke:#ecf0f1;stroke-linecap:round;stroke-linejoin:round;stroke-width:0.4799000024795532px"/><rect x="6.2399" y="13.6797" width="2.88" height="1.4406" style="fill:#2ecc71"/><rect x="6.2399" y="13.6797" width="2.88" height="1.4406" style="fill:none;stroke:#ecf0f1;stroke-linecap:round;stroke-linejoin:round;stroke-width:0.4799000024795532px"/><line x1="1.44" y1="7.6799" x2="13.9198" y2="7.6799" style="fill:none;stroke:#ecf0f1;stroke-linecap:round;stroke-linejoin:round;stroke-width:0.4799000024795532px"/></g></g></g></svg>