<svg xmlns="http://www.w3.org/2000/svg" xmlns:xlink="http://www.w3.org/1999/xlink" viewBox="0 0 15.3598 15.3598"><defs><clipPath id="clip-path"><rect width="15.3598" height="15.3601" style="fill:none"/></clipPath></defs><title>chazzromeo-05</title><g id="Page_5" data-name="Page 5"><g id="Page_5-2" data-name="Page 5"><g style="clip-path:url(#clip-path)"><path d="M3.5972,6.2405a.36.36,0,0,1,.72,0V9.1207a.36.36,0,0,1-.72,0Zm2.4006-.0003a.36.36,0,0,1,.72,0V9.1205a.36.36,0,1,1-.72,0Zm2.401-.0003a.36.36,0,0,1,.72,0V9.1202a.36.36,0,1,1-.72,0Zm2.4003-.0003a.36.36,0,0,1,.72,0V9.1199a.36.36,0,1,1-.72,0Zm2.401-.0003a.36.36,0,0,1,.72,0V9.1196a.36.36,0,0,1-.72,0ZM1.1965,6.2407a.36.36,0,0,1,.72,0V9.121a.36.36,0,0,1-.72,0Z" style="fill:#f1c40f"/><path d="M3.5972,6.2405a.36.36,0,0,1,.72,0V9.1207a.36.36,0,0,1-.72,0Zm2.4006-.0003a.36.36,0,0,1,.72,0V9.1205a.36.36,0,1,1-.72,0Zm2.401-.0003a.36.36,0,0,1,.72,0V9.1202a.36.36,0,1,1-.72,0Zm2.4003-.0003a.36.36,0,0,1,.72,0V9.1199a.36.36,0,1,1-.72,0Zm2.401-.0003a.36.36,0,0,1,.72,0V9.1196a.36.36,0,0,1-.72,0ZM1.1965,6.2407a.36.36,0,0,1,.72,0V9.121a.36.36,0,0,1-.72,0Z" style="fill:none;stroke:#000;stroke-miterlimit:2.613126039505005;stroke-width:0.4799000024795532px"/><path d="M14.7603,9.1202a.36.36,0,0,1,0,.72H.5992a.36.36,0,1,1,0-.72Z" style="fill:#f1c40f"/><path d="M14.7603,9.1202a.36.36,0,0,1,0,.72H.5992a.36.36,0,1,1,0-.72Z" style="fill:none;stroke:#000;stroke-miterlimit:2.613126039505005;stroke-width:0.4799000024795532px"/><path d="M14.7603,5.5202a.36.36,0,1,1,0,.72H.5992a.36.36,0,0,1,0-.72Z" style="fill:#f1c40f"/><path d="M14.7603,5.5202a.36.36,0,1,1,0,.72H.5992a.36.36,0,0,1,0-.72Z" style="fill:none;stroke:#000;stroke-miterlimit:2.613126039505005;stroke-width:0.4799000024795532px"/></g></g></g></svg>