<svg xmlns="http://www.w3.org/2000/svg" xmlns:xlink="http://www.w3.org/1999/xlink" viewBox="0 0 15.3598 15.3598"><defs><clipPath id="clip-path"><rect width="15.3598" height="15.3601" style="fill:none"/></clipPath></defs><title>chazzromeo-06</title><g id="Page_6" data-name="Page 6"><g id="Page_6-2" data-name="Page 6"><g style="clip-path:url(#clip-path)"><rect x="9.121" y="1.921" width="3.3599" height="4.7994" style="fill:#d35400"/><rect x="9.121" y="1.921" width="3.3599" height="4.7994" style="fill:none;stroke:#000;stroke-linecap:round;stroke-linejoin:round;stroke-width:0.4799000024795532px"/><rect x="9.121" y="1.921" width="3.3599" height="2.3996" style="fill:#f1c40f"/><rect x="9.121" y="1.921" width="3.3599" height="2.3996" style="fill:none;stroke:#000;stroke-linecap:round;stroke-linejoin:round;stroke-width:0.4799000024795532px"/><path d="M6.0007.2404h0a.48158.48158,0,0,1,.4804.4804V15.12H5.5202V.7208A.4816.4816,0,0,1,6.0007.2404Z" style="fill:#06afeb;fill-rule:evenodd"/><path d="M6.0007.2404h0a.48158.48158,0,0,1,.4804.4804V15.12H5.5202V.7208A.4816.4816,0,0,1,6.0007.2404Z" style="fill:none;stroke:#000;stroke-linecap:round;stroke-linejoin:round;stroke-width:0.4799000024795532px"/><rect x="6.4811" y="0.7208" width="3.3599" height="4.7994" style="fill:#f1c40f"/><rect x="6.4811" y="0.7208" width="3.3599" height="4.7994" style="fill:none;stroke:#000;stroke-linecap:round;stroke-linejoin:round;stroke-width:0.4799000024795532px"/><rect x="6.4811" y="0.7208" width="3.3599" height="2.3996" style="fill:#d35400"/><rect x="6.4811" y="0.7208" width="3.3599" height="2.3996" style="fill:none;stroke:#000;stroke-linecap:round;stroke-linejoin:round;stroke-width:0.4799000024795532px"/><line x1="11.0398" y1="15.1203" x2="4.3203" y2="15.1203" style="fill:none;stroke:#000;stroke-linecap:round;stroke-linejoin:round;stroke-width:0.4799000024795532px"/></g></g></g></svg>