<svg xmlns="http://www.w3.org/2000/svg" xmlns:xlink="http://www.w3.org/1999/xlink" viewBox="0 0 15.3598 15.3598"><defs><clipPath id="clip-path"><rect width="15.3598" height="15.3601" style="fill:none"/></clipPath></defs><title>chazzromeo-07</title><g id="Page_7" data-name="Page 7"><g id="Page_7-2" data-name="Page 7"><g style="clip-path:url(#clip-path)"><line x1="0.2392" y1="11.9999" x2="15.1206" y2="11.9999" style="fill:none;stroke:#000;stroke-linecap:round;stroke-linejoin:round;stroke-width:0.4799000024795532px"/><polygon points="3.361 10.561 1.439 12 1.439 4.32 3.361 5.76 3.361 10.561" style="fill:none;stroke:#000;stroke-linecap:round;stroke-linejoin:round;stroke-width:0.4799000024795532px"/><polygon points="11.999 10.561 13.921 12 13.921 4.32 11.999 5.76 11.999 10.561" style="fill:none;stroke:#000;stroke-linecap:round;stroke-linejoin:round;stroke-width:0.4799000024795532px"/><rect x="3.3605" y="5.7603" width="8.6388" height="4.8002" style="fill:none;stroke:#000;stroke-linecap:round;stroke-linejoin:round;stroke-width:0.4799000024795532px"/><path d="M2.4007,4.8688v6.4454" style="fill:none;stroke:#000;stroke-linecap:round;stroke-linejoin:round;stroke-width:0.4799000024795532px"/><path d="M12.9591,4.8688v6.4454" style="fill:none;stroke:#000;stroke-linecap:round;stroke-linejoin:round;stroke-width:0.4799000024795532px"/><polygon points="12 9.645 13.921 10.32 13.921 6 12 6.54 12 9.645" style="fill:none;stroke:#000;stroke-linecap:round;stroke-linejoin:round;stroke-width:0.4799000024795532px"/><polygon points="12 8.655 13.921 8.88 13.921 7.44 12 7.62 12 8.655" style="fill:none;stroke:#000;stroke-linecap:round;stroke-linejoin:round;stroke-width:0.4799000024795532px"/><polygon points="3.361 9.645 1.439 10.32 1.439 6 3.361 6.54 3.361 9.645" style="fill:none;stroke:#000;stroke-linecap:round;stroke-linejoin:round;stroke-width:0.4799000024795532px"/><polygon points="3.361 8.655 1.439 8.88 1.439 7.44 3.361 7.62 3.361 8.655" style="fill:none;stroke:#000;stroke-linecap:round;stroke-linejoin:round;stroke-width:0.4799000024795532px"/><path d="M3.3605,6.7204h8.6388m0,2.88H3.3605" style="fill:none;stroke:#000;stroke-linecap:round;stroke-linejoin:round;stroke-width:0.4799000024795532px"/><path d="M3.3593,7.6805h8.6412m0,.9592H3.3593" style="fill:none;stroke:#000;stroke-linecap:round;stroke-linejoin:round;stroke-width:0.4799000024795532px"/><polyline points="7.199 10.561 7.199 5.76 7.079 4.32" style="fill:none;stroke:#000;stroke-linecap:round;stroke-linejoin:round;stroke-width:0.4799000024795532px"/><polyline points="6.24 10.561 6.24 5.76 5.999 4.32" style="fill:none;stroke:#000;stroke-linecap:round;stroke-linejoin:round;stroke-width:0.4799000024795532px"/><polyline points="5.28 10.561 5.296 5.688 4.817 4.248" style="fill:none;stroke:#000;stroke-linecap:round;stroke-linejoin:round;stroke-width:0.4799000024795532px"/><polyline points="4.32 10.561 4.32 5.76 3.599 4.32" style="fill:none;stroke:#000;stroke-linecap:round;stroke-linejoin:round;stroke-width:0.4799000024795532px"/><polyline points="8.161 10.561 8.161 5.76 8.281 4.32" style="fill:none;stroke:#000;stroke-linecap:round;stroke-linejoin:round;stroke-width:0.4799000024795532px"/><polyline points="9.12 10.561 9.12 5.76 9.36 4.32" style="fill:none;stroke:#000;stroke-linecap:round;stroke-linejoin:round;stroke-width:0.4799000024795532px"/><polyline points="10.08 10.561 10.064 5.688 10.543 4.248" style="fill:none;stroke:#000;stroke-linecap:round;stroke-linejoin:round;stroke-width:0.4799000024795532px"/><polyline points="11.04 10.561 11.04 5.76 11.761 4.32" style="fill:none;stroke:#000;stroke-linecap:round;stroke-linejoin:round;stroke-width:0.4799000024795532px"/><path d="M14.6407,11.9999h-.9598V4.5601H1.679v7.4398H.7191V4.0802a.48107.48107,0,0,1,.48-.4799H14.1608a.481.481,0,0,1,.4799.4799Z" style="fill:#ecf0f1;fill-rule:evenodd"/><path d="M14.6407,11.9999h-.9598V4.5601H1.679v7.4398H.7191V4.0802a.48107.48107,0,0,1,.48-.4799H14.1608a.481.481,0,0,1,.4799.4799Z" style="fill:none;stroke:#000;stroke-linecap:round;stroke-linejoin:round;stroke-width:0.4799000024795532px"/><polygon points="11.999 10.561 13.921 12 1.552 11.915 3.361 10.561 11.999 10.561" style="fill:#2ecc71;fill-rule:evenodd"/><polygon points="11.999 10.561 13.921 12 1.552 11.915 3.361 10.561 11.999 10.561" style="fill:none;stroke:#000;stroke-linecap:round;stroke-linejoin:round;stroke-width:0.4799000024795532px"/></g></g></g></svg>