<svg xmlns="http://www.w3.org/2000/svg" xmlns:xlink="http://www.w3.org/1999/xlink" viewBox="0 0 15.3598 15.3598"><defs><clipPath id="clip-path"><rect width="15.3598" height="15.3601" style="fill:none"/></clipPath></defs><title>chazzromeo-11</title><g id="Page_11" data-name="Page 11"><g id="Page_11-2" data-name="Page 11"><g style="clip-path:url(#clip-path)"><circle cx="7.6799" cy="7.6799" r="7.4401" style="fill:#ecf0f1"/><circle cx="7.6799" cy="7.6799" r="7.4401" style="fill:none;stroke:#000;stroke-linecap:round;stroke-linejoin:round;stroke-width:0.4799000024795532px"/><path d="M7.6799.2398A7.4321,7.4321,0,0,0,5.3206.6219l.7336.5134L7.6799,2.2737,9.3056,1.1353l.7336-.5134A7.4321,7.4321,0,0,0,7.6799.2398Z" style="fill:#34495e;fill-rule:evenodd"/><path d="M7.6799.2398A7.4321,7.4321,0,0,0,5.3206.6219l.7336.5134L7.6799,2.2737,9.3056,1.1353l.7336-.5134A7.4321,7.4321,0,0,0,7.6799.2398Z" style="fill:none;stroke:#000;stroke-linecap:round;stroke-linejoin:round;stroke-width:0.4799000024795532px"/><path d="M1.6863,3.2715A7.40632,7.40632,0,0,0,.2398,7.6799l.0009.0609L.9408,7.213,2.5262,6.0185,1.9457,4.1201Z" style="fill:#34495e;fill-rule:evenodd"/><path d="M1.6863,3.2715A7.40632,7.40632,0,0,0,.2398,7.6799l.0009.0609L.9408,7.213,2.5262,6.0185,1.9457,4.1201Z" style="fill:none;stroke:#000;stroke-linecap:round;stroke-linejoin:round;stroke-width:0.4799000024795532px"/><path d="M1.6418,12.0271a7.45845,7.45845,0,0,0,3.7803,2.7437l-.2815-.817-.6457-1.8771-1.9845-.0343Z" style="fill:#34495e;fill-rule:evenodd"/><path d="M1.6418,12.0271a7.45845,7.45845,0,0,0,3.7803,2.7437l-.2815-.817-.6457-1.8771-1.9845-.0343Z" style="fill:none;stroke:#000;stroke-linecap:round;stroke-linejoin:round;stroke-width:0.4799000024795532px"/><path d="M9.9374,14.7708a7.45529,7.45529,0,0,0,3.7806-2.7434l-.8683.015-1.9848.0343-.6457,1.8768Z" style="fill:#34495e;fill-rule:evenodd"/><path d="M9.9374,14.7708a7.45529,7.45529,0,0,0,3.7806-2.7434l-.8683.015-1.9848.0343-.6457,1.8768Z" style="fill:none;stroke:#000;stroke-linecap:round;stroke-linejoin:round;stroke-width:0.4799000024795532px"/><path d="M15.1191,7.7406l.0009-.0607a7.405,7.405,0,0,0-1.4465-4.4082l-.2591.8482-.5808,1.8986,1.5851,1.194Z" style="fill:#34495e;fill-rule:evenodd"/><path d="M15.1191,7.7406l.0009-.0607a7.405,7.405,0,0,0-1.4465-4.4082l-.2591.8482-.5808,1.8986,1.5851,1.194Z" style="fill:none;stroke:#000;stroke-linecap:round;stroke-linejoin:round;stroke-width:0.4799000024795532px"/><polygon points="7.68 4.8 9.12 5.809 10.56 6.817 10.01 8.449 9.46 10.08 7.68 10.08 5.9 10.08 5.35 8.449 4.8 6.817 6.24 5.809 7.68 4.8" style="fill:#34495e;fill-rule:evenodd"/><polygon points="7.68 4.8 9.12 5.809 10.56 6.817 10.01 8.449 9.46 10.08 7.68 10.08 5.9 10.08 5.35 8.449 4.8 6.817 6.24 5.809 7.68 4.8" style="fill:none;stroke:#000;stroke-linecap:round;stroke-linejoin:round;stroke-width:0.4799000024795532px"/><line x1="7.6799" y1="2.1603" x2="7.6799" y2="4.8002" style="fill:none;stroke:#000;stroke-linecap:round;stroke-linejoin:round;stroke-width:0.4799000024795532px"/><line x1="10.5599" y1="6.817" x2="12.8336" y2="6.0185" style="fill:none;stroke:#000;stroke-linecap:round;stroke-linejoin:round;stroke-width:0.4799000024795532px"/><line x1="10.8649" y1="12.0767" x2="9.4601" y2="10.0803" style="fill:none;stroke:#000;stroke-linecap:round;stroke-linejoin:round;stroke-width:0.4799000024795532px"/><line x1="4.7999" y1="6.817" x2="2.5262" y2="6.0185" style="fill:none;stroke:#000;stroke-linecap:round;stroke-linejoin:round;stroke-width:0.4799000024795532px"/><line x1="4.4949" y1="12.0767" x2="5.8997" y2="10.0803" style="fill:none;stroke:#000;stroke-linecap:round;stroke-linejoin:round;stroke-width:0.4799000024795532px"/></g></g></g></svg>