<svg xmlns="http://www.w3.org/2000/svg" xmlns:xlink="http://www.w3.org/1999/xlink" viewBox="0 0 15.3598 15.3598"><defs><clipPath id="clip-path"><rect width="15.3598" height="15.3601" style="fill:none"/></clipPath></defs><title>chazzromeo-09</title><g id="Page_9" data-name="Page 9"><g id="Page_9-2" data-name="Page 9"><g style="clip-path:url(#clip-path)"><path d="M2.4585,13.5805a.48008.48008,0,0,0-.6792-.6786l-.6786.6789a.48008.48008,0,0,0,.6792.6786Zm2.0367-2.0367a.48008.48008,0,0,0-.6792-.6786l-.6789.6789a.48008.48008,0,0,0,.6792.6786ZM6.5319,9.5071a.48008.48008,0,0,0-.6792-.6786l-.6789.6789a.48008.48008,0,0,0,.6792.6786ZM8.5686,7.4704a.48008.48008,0,0,0-.6792-.6786l-.6789.6789a.48008.48008,0,0,0,.6792.6786Zm2.0367-2.0367a.48008.48008,0,0,0-.6792-.6786l-.6789.6789a.48008.48008,0,0,0,.6792.6786ZM12.761,1.9202,11.2839,3.3973a.48008.48008,0,0,0,.6792.6786l1.4768-1.4768V4.0799a.4802.4802,0,0,0,.9604,0V1.44a.4804.4804,0,0,0-.4802-.4802H11.2802a.4802.4802,0,0,0,0,.9604Z" style="fill:#f1c40f"/><path d="M2.4585,13.5805a.48008.48008,0,0,0-.6792-.6786l-.6786.6789a.48008.48008,0,0,0,.6792.6786Zm2.0367-2.0367a.48008.48008,0,0,0-.6792-.6786l-.6789.6789a.48008.48008,0,0,0,.6792.6786ZM6.5319,9.5071a.48008.48008,0,0,0-.6792-.6786l-.6789.6789a.48008.48008,0,0,0,.6792.6786ZM8.5686,7.4704a.48008.48008,0,0,0-.6792-.6786l-.6789.6789a.48008.48008,0,0,0,.6792.6786Zm2.0367-2.0367a.48008.48008,0,0,0-.6792-.6786l-.6789.6789a.48008.48008,0,0,0,.6792.6786ZM12.761,1.9202,11.2839,3.3973a.48008.48008,0,0,0,.6792.6786l1.4768-1.4768V4.0799a.4802.4802,0,0,0,.9604,0V1.44a.4804.4804,0,0,0-.4802-.4802H11.2802a.4802.4802,0,0,0,0,.9604Z" style="fill:none;stroke:#000;stroke-miterlimit:2.613126039505005;stroke-width:0.4799000024795532px"/></g></g></g></svg>