<svg xmlns="http://www.w3.org/2000/svg" xmlns:xlink="http://www.w3.org/1999/xlink" viewBox="0 0 15.3598 15.3598"><defs><clipPath id="clip-path"><rect width="15.3598" height="15.3601" style="fill:none"/></clipPath></defs><title>chazzromeo-12</title><g id="Page_12" data-name="Page 12"><g id="Page_12-2" data-name="Page 12"><g style="clip-path:url(#clip-path)"><path d="M7.075,9.7169a.838.838,0,0,1,1.4502-.8402l1.4267,2.4537a.83623.83623,0,0,1,.0975.2596l.4975,2.5305a.83928.83928,0,1,1-1.6475.3214l-.4697-2.3952Z" style="fill:#3498db"/><path d="M7.075,9.7169a.838.838,0,0,1,1.4502-.8402l1.4267,2.4537a.83623.83623,0,0,1,.0975.2596l.4975,2.5305a.83928.83928,0,1,1-1.6475.3214l-.4697-2.3952Z" style="fill:none;stroke:#000;stroke-linecap:round;stroke-linejoin:round;stroke-width:0.4799000024795532px"/><path d="M5.7532,4.2965A.72.72,0,1,1,6.7643,5.3218L4.7696,7.2887,4.5405,9.4275A.71772.71772,0,0,1,3.113,9.2767l.2514-2.346a.71459.71459,0,0,1,.2138-.4893Z" style="fill:#3498db"/><path d="M5.7532,4.2965A.72.72,0,1,1,6.7643,5.3218L4.7696,7.2887,4.5405,9.4275A.71772.71772,0,0,1,3.113,9.2767l.2514-2.346a.71459.71459,0,0,1,.2138-.4893Z" style="fill:none;stroke:#000;stroke-linecap:round;stroke-linejoin:round;stroke-width:0.4799000024795532px"/><path d="M7.0191,10.0369l-.2828,1.8337a.83677.83677,0,0,1-.1018.3104L5.4369,14.6458a.83821.83821,0,1,1-1.5098-.7286l1.1588-2.385c.2653-2.1705.3646-4.216.5137-6.4111A1.3585,1.3585,0,0,1,7.0617,3.8596H7.062c1.205.0956,1.4102,1.6586,1.8374,2.6734l1.7413.193a.71868.71868,0,0,1-.1576,1.4287L8.3239,7.9152a.73581.73581,0,0,1-.1584-.0372l-.0295.9136A1.33567,1.33567,0,0,1,7.0191,10.0369Z" style="fill:#3498db"/><path d="M7.0191,10.0369l-.2828,1.8337a.83677.83677,0,0,1-.1018.3104L5.4369,14.6458a.83821.83821,0,1,1-1.5098-.7286l1.1588-2.385c.2653-2.1705.3646-4.216.5137-6.4111A1.3585,1.3585,0,0,1,7.0617,3.8596H7.062c1.205.0956,1.4102,1.6586,1.8374,2.6734l1.7413.193a.71868.71868,0,0,1-.1576,1.4287L8.3239,7.9152a.73581.73581,0,0,1-.1584-.0372l-.0295.9136A1.33567,1.33567,0,0,1,7.0191,10.0369Z" style="fill:none;stroke:#000;stroke-linecap:round;stroke-linejoin:round;stroke-width:0.4799000024795532px"/><path d="M7.4398.4807A1.68,1.68,0,1,1,5.7597,2.1606,1.68018,1.68018,0,0,1,7.4398.4807Z" style="fill:#3498db;fill-rule:evenodd"/><path d="M7.4398.4807A1.68,1.68,0,1,1,5.7597,2.1606,1.68018,1.68018,0,0,1,7.4398.4807Z" style="fill:none;stroke:#000;stroke-linecap:round;stroke-linejoin:round;stroke-width:0.4799000024795532px"/><path d="M8.3239,7.9152a.72153.72153,0,0,1-.5819-.436L7.2057,6.2345" style="fill:none;stroke:#000;stroke-linecap:round;stroke-linejoin:round;stroke-width:0.4799000024795532px"/></g></g></g></svg>